<?xml version="1.0" encoding="UTF-8" standalone="no"?>
<!-- Created with Inkscape (http://www.inkscape.org/) -->

<svg
   xmlns:dc="http://purl.org/dc/elements/1.1/"
   xmlns:cc="http://creativecommons.org/ns#"
   xmlns:rdf="http://www.w3.org/1999/02/22-rdf-syntax-ns#"
   xmlns:svg="http://www.w3.org/2000/svg"
   xmlns="http://www.w3.org/2000/svg"
   xmlns:sodipodi="http://sodipodi.sourceforge.net/DTD/sodipodi-0.dtd"
   xmlns:inkscape="http://www.inkscape.org/namespaces/inkscape"
   width="210mm"
   height="297mm"
   viewBox="0 0 210 297"
   version="1.1"
   id="svg7657"
   inkscape:version="0.92.5 (2060ec1f9f, 2020-04-08)"
   sodipodi:docname="bluevane_camer_trap.svg">
  <defs
     id="defs7651" />
  <sodipodi:namedview
     id="base"
     pagecolor="#ffffff"
     bordercolor="#666666"
     borderopacity="1.0"
     inkscape:pageopacity="0.0"
     inkscape:pageshadow="2"
     inkscape:zoom="2.8"
     inkscape:cx="483.79398"
     inkscape:cy="375.75192"
     inkscape:document-units="mm"
     inkscape:current-layer="layer1"
     showgrid="false"
     inkscape:window-width="2560"
     inkscape:window-height="1391"
     inkscape:window-x="0"
     inkscape:window-y="25"
     inkscape:window-maximized="1" />
  <metadata
     id="metadata7654">
    <rdf:RDF>
      <cc:Work
         rdf:about="">
        <dc:format>image/svg+xml</dc:format>
        <dc:type
           rdf:resource="http://purl.org/dc/dcmitype/StillImage" />
        <dc:title />
      </cc:Work>
    </rdf:RDF>
  </metadata>
  <g
     inkscape:label="Layer 1"
     inkscape:groupmode="layer"
     id="layer1">
    <rect
       y="270.86264"
       x="-12.395865"
       height="68.195435"
       width="24.791731"
       id="rect8494"
       style="fill:#000002;fill-opacity:0.00392157;stroke:#000000;stroke-width:0.131;stroke-miterlimit:4;stroke-dasharray:none;stroke-opacity:1" />
    <text
       xml:space="preserve"
       style="font-style:normal;font-weight:normal;font-size:4.23333311px;line-height:1.25;font-family:sans-serif;letter-spacing:0px;word-spacing:0px;fill:#000000;fill-opacity:1;stroke:none;stroke-width:0.26458332"
       x="5.4147668"
       y="85.546005"
       id="text8354"><tspan
         sodipodi:role="line"
         id="tspan8352"
         x="5.4147668"
         y="85.546005"
         style="stroke-width:0.26458332">2 inch</tspan><tspan
         sodipodi:role="line"
         x="5.4147668"
         y="90.837669"
         style="stroke-width:0.26458332"
         id="tspan8356">1&quot; depth of field</tspan><tspan
         sodipodi:role="line"
         x="5.4147668"
         y="96.129341"
         style="stroke-width:0.26458332"
         id="tspan8358">1&quot; OD tube</tspan><tspan
         sodipodi:role="line"
         x="5.4147668"
         y="101.42101"
         style="stroke-width:0.26458332"
         id="tspan8360">2 acrylic plates</tspan><tspan
         sodipodi:role="line"
         x="5.4147668"
         y="106.71267"
         style="stroke-width:0.26458332"
         id="tspan8362">4 spacers</tspan><tspan
         sodipodi:role="line"
         x="5.4147668"
         y="112.00433"
         style="stroke-width:0.26458332"
         id="tspan8364" /><tspan
         sodipodi:role="line"
         x="5.4147668"
         y="117.29601"
         style="stroke-width:0.26458332"
         id="tspan8366">if spacers are plates</tspan><tspan
         sodipodi:role="line"
         x="5.4147668"
         y="122.58767"
         style="stroke-width:0.26458332"
         id="tspan8368">they're easy to recut</tspan><tspan
         sodipodi:role="line"
         x="5.4147668"
         y="127.87933"
         style="stroke-width:0.26458332"
         id="tspan8370">(no need to order parts)</tspan><tspan
         sodipodi:role="line"
         x="5.4147668"
         y="133.17101"
         style="stroke-width:0.26458332"
         id="tspan8372" /><tspan
         sodipodi:role="line"
         x="5.4147668"
         y="138.46266"
         style="stroke-width:0.26458332"
         id="tspan8374">can extend top plate to</tspan><tspan
         sodipodi:role="line"
         x="5.4147668"
         y="143.75433"
         style="stroke-width:0.26458332"
         id="tspan8376">accomodate the blue vane</tspan><tspan
         sodipodi:role="line"
         x="5.4147668"
         y="149.04601"
         style="stroke-width:0.26458332"
         id="tspan8378">trap</tspan><tspan
         sodipodi:role="line"
         x="5.4147668"
         y="154.33766"
         style="stroke-width:0.26458332"
         id="tspan8380" /><tspan
         sodipodi:role="line"
         x="5.4147668"
         y="159.62933"
         style="stroke-width:0.26458332"
         id="tspan8382">Lapse-O-Matic mounting holes</tspan><tspan
         sodipodi:role="line"
         x="5.4147668"
         y="164.92101"
         style="stroke-width:0.26458332"
         id="tspan1020">are oddly spaced</tspan><tspan
         sodipodi:role="line"
         x="5.4147668"
         y="170.21266"
         style="stroke-width:0.26458332"
         id="tspan1018">74.9 mm x 34.9 mm</tspan><tspan
         sodipodi:role="line"
         x="5.4147668"
         y="175.50433"
         style="stroke-width:0.26458332"
         id="tspan8390" /><tspan
         sodipodi:role="line"
         x="5.4147668"
         y="180.79601"
         style="stroke-width:0.26458332"
         id="tspan8392">holes are just under 3 mm</tspan><tspan
         sodipodi:role="line"
         x="5.4147668"
         y="186.08766"
         style="stroke-width:0.26458332"
         id="tspan8404">(so m2.5 or 4-40)</tspan><tspan
         sodipodi:role="line"
         x="5.4147668"
         y="191.37933"
         style="stroke-width:0.26458332"
         id="tspan1082" /><tspan
         sodipodi:role="line"
         x="5.4147668"
         y="196.67101"
         style="stroke-width:0.26458332"
         id="tspan1084">cut out of 1/8&quot; material</tspan></text>
    <rect
       style="fill:none;fill-opacity:1;stroke:#000000;stroke-width:0.2052623;stroke-miterlimit:4;stroke-dasharray:none;stroke-opacity:1"
       id="rect8414"
       width="101.39474"
       height="63.294739"
       x="-50.697369"
       y="265.35263" />
    <rect
       y="279.51547"
       x="-37.384544"
       height="34.869083"
       width="74.869087"
       id="rect8416"
       style="fill:none;fill-opacity:1;stroke:#000000;stroke-width:0.131;stroke-miterlimit:4;stroke-dasharray:none;stroke-opacity:1" />
    <ellipse
       style="fill:none;fill-opacity:1;stroke:#000000;stroke-width:0.07383331;stroke-miterlimit:4;stroke-dasharray:none;stroke-opacity:1"
       id="path8418"
       cx="37.450001"
       cy="279.54999"
       rx="1.4630833"
       ry="1.4630834" />
    <path
       inkscape:connector-curvature="0"
       sodipodi:nodetypes="scsssscsssscsssscss"
       d="m -16.407033,270.45901 -0.18124,0.005 -0.17886,0.0138 h -21.28959 l -0.14483,0.004 -0.1429,0.0108 -0.14076,0.0178 -0.13845,0.0246 -0.13603,0.0312 -0.13335,0.0377 -0.13054,0.044 -0.127555,0.0501 -0.12438,0.0561 -0.12104,0.0618 -0.11753,0.0674 -0.11385,0.0729 -0.10999,0.0781 -0.10596,0.0832 -0.10174,0.0881 -0.0974,0.0928 -0.0928,0.0974 -0.0881,0.10176 -0.0832,0.10597 -0.0781,0.10999 -0.0729,0.11385 -0.0674,0.11752 -0.0618,0.12105 -0.0561,0.12438 -0.0501,0.12756 -0.044,0.13054 -0.0377,0.13335 -0.0312,0.136 -0.0246,0.13848 -0.0178,0.14076 -0.0108,0.1429 -0.004,0.14483 v 49.21352 l 0.004,0.14473 0.0108,0.14288 0.0178,0.14075 0.0246,0.13865 0.0312,0.13599 0.0377,0.13335 0.044,0.13044 0.0501,0.12754 0.0561,0.12434 0.0618,0.12118 0.0674,0.11748 0.0729,0.11377 0.0781,0.11006 0.0832,0.10584 0.0881,0.10186 0.0928,0.0974 0.0974,0.0929 0.10174,0.0881 0.10596,0.0831 0.10999,0.0781 0.11385,0.073 0.11753,0.0675 0.12104,0.0617 0.12438,0.0561 0.127555,0.0503 0.13054,0.0439 0.13335,0.0376 0.13603,0.0312 0.13845,0.0246 0.14076,0.018 0.1429,0.0106 0.14483,0.004 h 18.17519 v 5.19403 l 0.004,0.17938 0.0132,0.17674 0.022,0.17436 0.0307,0.17145 0.0386,0.16828 0.0466,0.1651 0.0545,0.16166 0.0622,0.15795 0.0693,0.15399 0.0765,0.14976 0.0836,0.14552 0.0902,0.14102 0.0966,0.136 0.10292,0.13123 0.10928,0.12594 0.11483,0.12065 0.12064,0.11483 0.12595,0.10901 0.13097,0.10292 0.13626,0.0966 0.14102,0.0902 0.14552,0.0836 0.14975,0.0765 0.15399,0.0693 0.15796,0.0622 0.16166,0.0545 0.1651,0.0466 0.16827,0.0386 0.17145,0.0304 0.17436,0.022 0.17701,0.0135 0.17912,0.004 h 32.91439 l 0.17939,-0.004 0.17674,-0.0135 0.17436,-0.022 0.17145,-0.0304 0.16827,-0.0386 0.1651,-0.0466 0.16166,-0.0545 0.15797,-0.0622 0.15399,-0.0693 0.14974,-0.0765 0.14552,-0.0836 0.14103,-0.0902 0.13599,-0.0966 0.13123,-0.10292 0.12594,-0.10901 0.12039,-0.11483 0.1151,-0.12065 0.109,-0.12594 0.10292,-0.13123 0.0966,-0.136 0.0902,-0.14102 0.0836,-0.14552 0.0765,-0.14976 0.0693,-0.15399 0.0622,-0.15795 0.0542,-0.16166 0.0468,-0.1651 0.0386,-0.16828 0.0304,-0.17145 0.022,-0.17436 0.0135,-0.17674 0.005,-0.17938 v -5.19403 h 18.17553 l 0.14472,-0.004 0.14288,-0.0106 0.14102,-0.018 0.13838,-0.0246 0.13599,-0.0312 0.13335,-0.0376 0.13044,-0.0439 0.12753,-0.0503 0.12436,-0.0561 0.12118,-0.0617 0.11747,-0.0675 0.11377,-0.073 0.11007,-0.0781 0.10583,-0.0831 0.1016,-0.0881 0.0974,-0.0929 0.0929,-0.0974 0.0881,-0.10186 0.0831,-0.10584 0.0781,-0.11006 0.073,-0.11377 0.0672,-0.11748 0.0619,-0.12118 0.0561,-0.12434 0.05,-0.12754 0.0439,-0.13044 0.0378,-0.13335 0.0312,-0.13599 0.0246,-0.13865 0.0177,-0.14075 0.0109,-0.14288 0.004,-0.14473 v -49.21352 l -0.004,-0.14483 -0.0109,-0.1429 -0.0177,-0.14076 -0.0246,-0.13848 -0.0312,-0.136 -0.0378,-0.13335 -0.0439,-0.13054 -0.05,-0.12756 -0.0561,-0.12438 -0.0619,-0.12105 -0.0672,-0.11752 -0.073,-0.11385 -0.0781,-0.10999 -0.0831,-0.10597 -0.0881,-0.10176 -0.0929,-0.0974 -0.0974,-0.0928 -0.1016,-0.0881 -0.10583,-0.0832 -0.11007,-0.0781 -0.11377,-0.0729 -0.11747,-0.0674 -0.12118,-0.0618 -0.12436,-0.0561 -0.12753,-0.0501 -0.13044,-0.044 -0.13335,-0.0377 -0.13599,-0.0312 -0.13838,-0.0246 -0.14102,-0.0178 -0.14288,-0.0108 -0.14472,-0.004 h -21.29019 l -0.1786,-0.0138 -0.18097,-0.005 h -32.91438"
       style="display:inline;fill:none;stroke:#000000;stroke-width:0.173426;stroke-miterlimit:4;stroke-dasharray:none"
       id="path8420" />
    <ellipse
       ry="1.4630834"
       rx="1.4630833"
       cy="314.45001"
       cx="37.450001"
       id="ellipse8455"
       style="fill:none;fill-opacity:1;stroke:#000000;stroke-width:0.07383331;stroke-miterlimit:4;stroke-dasharray:none;stroke-opacity:1" />
    <ellipse
       style="fill:none;fill-opacity:1;stroke:#000000;stroke-width:0.07383331;stroke-miterlimit:4;stroke-dasharray:none;stroke-opacity:1"
       id="ellipse8457"
       cx="-37.450001"
       cy="314.45001"
       rx="1.4630833"
       ry="1.4630834" />
    <ellipse
       ry="1.4630834"
       rx="1.4630833"
       cy="279.54999"
       cx="-37.450001"
       id="ellipse8459"
       style="fill:none;fill-opacity:1;stroke:#000000;stroke-width:0.07383331;stroke-miterlimit:4;stroke-dasharray:none;stroke-opacity:1" />
    <g
       transform="translate(-82.223429,33.653496)"
       id="g910">
      <g
         id="g934"
         transform="translate(-17.589498,25.527064)">
        <circle
           r="1.6482602"
           cy="261.63202"
           cx="83.937927"
           id="circle906"
           style="fill:none;fill-opacity:1;stroke:#000000;stroke-width:0.13247964;stroke-miterlimit:4;stroke-dasharray:none;stroke-opacity:1" />
        <circle
           style="fill:none;fill-opacity:1;stroke:#000000;stroke-width:0.13247964;stroke-miterlimit:4;stroke-dasharray:none;stroke-opacity:1"
           id="circle912"
           cx="115.68793"
           cy="261.63202"
           r="1.6482602" />
        <circle
           style="fill:none;fill-opacity:1;stroke:#000000;stroke-width:0.13247964;stroke-miterlimit:4;stroke-dasharray:none;stroke-opacity:1"
           id="circle914"
           cx="83.937927"
           cy="245.757"
           r="1.6482602" />
        <circle
           r="1.6482602"
           cy="245.757"
           cx="115.68793"
           id="circle916"
           style="fill:none;fill-opacity:1;stroke:#000000;stroke-width:0.13247964;stroke-miterlimit:4;stroke-dasharray:none;stroke-opacity:1" />
        <circle
           r="1.6482602"
           cy="229.882"
           cx="83.937927"
           id="circle918"
           style="fill:none;fill-opacity:1;stroke:#000000;stroke-width:0.13247964;stroke-miterlimit:4;stroke-dasharray:none;stroke-opacity:1" />
        <circle
           style="fill:none;fill-opacity:1;stroke:#000000;stroke-width:0.13247964;stroke-miterlimit:4;stroke-dasharray:none;stroke-opacity:1"
           id="circle920"
           cx="115.68793"
           cy="229.882"
           r="1.6482602" />
        <circle
           style="fill:none;fill-opacity:1;stroke:#000000;stroke-width:0.13247964;stroke-miterlimit:4;stroke-dasharray:none;stroke-opacity:1"
           id="circle922"
           cx="83.937927"
           cy="214.007"
           r="1.6482602" />
        <circle
           r="1.6482602"
           cy="214.007"
           cx="115.68793"
           id="circle924"
           style="fill:none;fill-opacity:1;stroke:#000000;stroke-width:0.13247964;stroke-miterlimit:4;stroke-dasharray:none;stroke-opacity:1" />
      </g>
    </g>
    <rect
       style="fill:#000002;fill-opacity:0.00392157;stroke:#000000;stroke-width:0.12833284;stroke-miterlimit:4;stroke-dasharray:none;stroke-opacity:1"
       id="rect8461"
       width="3.0716672"
       height="15.871667"
       x="-45.985832"
       y="308.11417" />
    <rect
       y="308.11417"
       x="42.914165"
       height="15.871667"
       width="3.0716672"
       id="rect945"
       style="fill:#000002;fill-opacity:0.00392157;stroke:#000000;stroke-width:0.12833284;stroke-miterlimit:4;stroke-dasharray:none;stroke-opacity:1" />
    <rect
       y="270.01416"
       x="-45.985832"
       height="15.871667"
       width="3.0716672"
       id="rect947"
       style="fill:#000002;fill-opacity:0.00392157;stroke:#000000;stroke-width:0.12833284;stroke-miterlimit:4;stroke-dasharray:none;stroke-opacity:1" />
    <rect
       style="fill:#000002;fill-opacity:0.00392157;stroke:#000000;stroke-width:0.12833284;stroke-miterlimit:4;stroke-dasharray:none;stroke-opacity:1"
       id="rect949"
       width="3.0716672"
       height="15.871667"
       x="42.914165"
       y="270.01416" />
    <path
       style="fill:#000002;fill-opacity:0.00392157;stroke:#000000;stroke-width:0.131;stroke-miterlimit:4;stroke-dasharray:none;stroke-opacity:1"
       d="m 114.10831,72.189861 v 5.10253 h -3.17552 v 15.788704 h 3.17552 V 115.3893 h -3.17862 v 15.79438 h 3.17862 v 4.34391 h 63.33774 v -4.30517 h 3.21685 v -15.87188 h -3.21685 V 93.122435 h 3.21685 V 77.250531 h -3.21685 v -5.06067 z"
       id="rect973"
       inkscape:connector-curvature="0" />
    <rect
       y="168.06651"
       x="88.282784"
       height="63.294739"
       width="101.39474"
       id="rect1040"
       style="fill:none;fill-opacity:1;stroke:#000000;stroke-width:0.131;stroke-miterlimit:4;stroke-dasharray:none;stroke-opacity:1" />
    <ellipse
       ry="1.4630834"
       rx="1.4630833"
       cy="182.26387"
       cx="176.43016"
       id="ellipse1044"
       style="fill:none;fill-opacity:1;stroke:#000000;stroke-width:0.131;stroke-miterlimit:4;stroke-dasharray:none;stroke-opacity:1" />
    <ellipse
       style="fill:none;fill-opacity:1;stroke:#000000;stroke-width:0.131;stroke-miterlimit:4;stroke-dasharray:none;stroke-opacity:1"
       id="ellipse1048"
       cx="176.43016"
       cy="217.16389"
       rx="1.4630833"
       ry="1.4630834" />
    <ellipse
       ry="1.4630834"
       rx="1.4630833"
       cy="217.16389"
       cx="101.53015"
       id="ellipse1050"
       style="fill:none;fill-opacity:1;stroke:#000000;stroke-width:0.131;stroke-miterlimit:4;stroke-dasharray:none;stroke-opacity:1" />
    <ellipse
       style="fill:none;fill-opacity:1;stroke:#000000;stroke-width:0.131;stroke-miterlimit:4;stroke-dasharray:none;stroke-opacity:1"
       id="ellipse1052"
       cx="101.53015"
       cy="182.26387"
       rx="1.4630833"
       ry="1.4630834" />
    <g
       id="g1072"
       transform="translate(56.756725,-63.632612)"
       style="stroke-width:0.131;stroke-miterlimit:4;stroke-dasharray:none">
      <g
         transform="translate(-17.589498,25.527064)"
         id="g1070"
         style="stroke-width:0.131;stroke-miterlimit:4;stroke-dasharray:none">
        <circle
           style="fill:none;fill-opacity:1;stroke:#000000;stroke-width:0.131;stroke-miterlimit:4;stroke-dasharray:none;stroke-opacity:1"
           id="circle1054"
           cx="83.937927"
           cy="261.63202"
           r="1.6482602" />
        <circle
           r="1.6482602"
           cy="261.63202"
           cx="115.68793"
           id="circle1056"
           style="fill:none;fill-opacity:1;stroke:#000000;stroke-width:0.131;stroke-miterlimit:4;stroke-dasharray:none;stroke-opacity:1" />
        <circle
           r="1.6482602"
           cy="245.757"
           cx="83.937927"
           id="circle1058"
           style="fill:none;fill-opacity:1;stroke:#000000;stroke-width:0.131;stroke-miterlimit:4;stroke-dasharray:none;stroke-opacity:1" />
        <circle
           style="fill:none;fill-opacity:1;stroke:#000000;stroke-width:0.131;stroke-miterlimit:4;stroke-dasharray:none;stroke-opacity:1"
           id="circle1060"
           cx="115.68793"
           cy="245.757"
           r="1.6482602" />
        <circle
           style="fill:none;fill-opacity:1;stroke:#000000;stroke-width:0.131;stroke-miterlimit:4;stroke-dasharray:none;stroke-opacity:1"
           id="circle1062"
           cx="83.937927"
           cy="229.882"
           r="1.6482602" />
        <circle
           r="1.6482602"
           cy="229.882"
           cx="115.68793"
           id="circle1064"
           style="fill:none;fill-opacity:1;stroke:#000000;stroke-width:0.131;stroke-miterlimit:4;stroke-dasharray:none;stroke-opacity:1" />
        <circle
           r="1.6482602"
           cy="214.007"
           cx="83.937927"
           id="circle1066"
           style="fill:none;fill-opacity:1;stroke:#000000;stroke-width:0.131;stroke-miterlimit:4;stroke-dasharray:none;stroke-opacity:1" />
        <circle
           style="fill:none;fill-opacity:1;stroke:#000000;stroke-width:0.131;stroke-miterlimit:4;stroke-dasharray:none;stroke-opacity:1"
           id="circle1068"
           cx="115.68793"
           cy="214.007"
           r="1.6482602" />
      </g>
    </g>
    <rect
       y="210.82805"
       x="92.994324"
       height="15.871667"
       width="3.0716672"
       id="rect1074"
       style="fill:#000002;fill-opacity:0.00392157;stroke:#000000;stroke-width:0.131;stroke-miterlimit:4;stroke-dasharray:none;stroke-opacity:1" />
    <rect
       style="fill:#000002;fill-opacity:0.00392157;stroke:#000000;stroke-width:0.131;stroke-miterlimit:4;stroke-dasharray:none;stroke-opacity:1"
       id="rect1076"
       width="3.0716672"
       height="15.871667"
       x="181.89433"
       y="210.82805" />
    <rect
       style="fill:#000002;fill-opacity:0.00392157;stroke:#000000;stroke-width:0.131;stroke-miterlimit:4;stroke-dasharray:none;stroke-opacity:1"
       id="rect1078"
       width="3.0716672"
       height="15.871667"
       x="92.994324"
       y="172.72804" />
    <rect
       y="172.72804"
       x="181.89433"
       height="15.871667"
       width="3.0716672"
       id="rect1080"
       style="fill:#000002;fill-opacity:0.00392157;stroke:#000000;stroke-width:0.131;stroke-miterlimit:4;stroke-dasharray:none;stroke-opacity:1" />
    <text
       xml:space="preserve"
       style="font-style:normal;font-weight:normal;font-size:10.58333302px;line-height:1.25;font-family:sans-serif;letter-spacing:0px;word-spacing:0px;fill:#000000;fill-opacity:1;stroke:none;stroke-width:0.26458332"
       x="179.82217"
       y="71.537201"
       id="text1088"><tspan
         sodipodi:role="line"
         id="tspan1086"
         x="179.82217"
         y="71.537201"
         style="stroke-width:0.26458332">2x</tspan></text>
    <text
       id="text1092"
       y="165.65327"
       x="191.63393"
       style="font-style:normal;font-weight:normal;font-size:10.58333302px;line-height:1.25;font-family:sans-serif;letter-spacing:0px;word-spacing:0px;fill:#000000;fill-opacity:1;stroke:none;stroke-width:0.26458332"
       xml:space="preserve"><tspan
         style="stroke-width:0.26458332"
         y="165.65327"
         x="191.63393"
         id="tspan1090"
         sodipodi:role="line">2x</tspan></text>
  </g>
</svg>
